<?xml version="1.0" encoding="utf-8"?>
<!-- Generator: Adobe Illustrator 25.0.1, SVG Export Plug-In . SVG Version: 6.00 Build 0)  -->
<svg version="1.1" id="Calque_1" xmlns="http://www.w3.org/2000/svg" xmlns:xlink="http://www.w3.org/1999/xlink" x="0px" y="0px"
	 viewBox="0 0 1920 241" style="enable-background:new 0 0 1920 241;" xml:space="preserve">
<style type="text/css">
	.st0{fill-rule:evenodd;clip-rule:evenodd;fill:#335C81;}
</style>
<path class="st0" d="M416.28,214.01l60.78-186.61l91.93-0.04l61.99,186.55l-70.01,0.03l-11.66-33.61l-55,0.03l-11.67,33.62
	L416.28,214.01z M523.23,68.7l-26.53,73.94l51.02-0.02L523.23,68.7z M1194.99,213.72l60.78-186.61l91.92-0.04l62.01,186.55
	l-70.02,0.03l-11.64-33.61l-55.01,0.03l-11.67,33.62L1194.99,213.72L1194.99,213.72z M1301.94,68.41l-26.52,73.94l51.02-0.02
	L1301.94,68.41z M646.98,213.9l-0.09-186.58l132.34-0.06c14.94-0.01,27.1,5.32,36.67,11.85c9.54,6.51,17.75,14.92,21.02,26.37
	c4.65,16.23,3.62,29.29,0.54,38.24c-3.09,8.96-8.46,16.48-16.13,22.5c-7.67,6.02-14.07,10.76-28.41,14.21
	c5.54,5.63,5.49,5.85,12.03,10.48c8.9,6.29,17.11,7.18,47.55,7.29l52.35-0.01l0.03,55.58l-52.71,0.16
	c-57.36,0.17-77.56-0.26-88.55-10.12c-13.83-12.38-28.86-26.9-49.75-51.57l0.03,61.62L646.98,213.9L646.98,213.9z M713.82,73.77
	l0.02,34.41l46.64-0.02c2.49,0,5.21-0.93,8.1-2.79c2.89-1.85,4.46-6.53,4.63-14.03c-0.44-7.15-2.19-11.86-5.21-14.16
	c-3.03-2.28-5.6-3.44-7.62-3.44L713.82,73.77L713.82,73.77z M1830.76,26.83l-136.54,0.06c-23.58,0.01-37.6,11.53-42.04,34.64
	c-4.41,23.06,8.25,48.38,38.03,75.93c18.04,14.34,14.92,21.13-9.24,20.43l-31.75,0.02v-0.08l-16.83-0.01
	c-30.45-0.11-38.66-0.99-47.55-7.29c-6.54-4.64-6.5-4.85-12.03-10.48c14.34-3.45,20.74-8.19,28.41-14.21
	c7.67-6.02,13.07-13.54,16.13-22.5c3.07-8.95,4.09-22.01-0.55-38.24c-3.27-11.45-11.47-19.86-21-26.37
	c-9.57-6.53-21.73-11.86-36.67-11.85l-132.34,0.06l0.09,186.58l66.91-0.03l-0.03-61.62c20.88,24.67,35.92,39.19,49.75,51.57
	c10.99,9.86,31.18,10.6,88.55,10.12l9.95-0.08v0.02l98.46-0.05c26.63-4.52,40.25-18.28,40.76-41.39
	c0.47-23.07-12.88-47.13-40.81-71.3c-15.26-13.2-12.22-18.35,9.74-18.36l80.64-0.04L1830.76,26.83L1830.76,26.83z M1493.71,73.4
	l0.02,34.41l46.64-0.02c2.51,0,5.2-0.93,8.09-2.79c2.89-1.85,4.46-6.53,4.63-14.03c-0.44-7.15-2.19-11.86-5.21-14.16
	c-3.03-2.28-5.58-3.44-7.6-3.44L1493.71,73.4z M158.13,27.54c-23.59,0.01-37.58,11.53-42.03,34.64
	c-4.41,23.07,7.52,49.22,38.01,75.93c17.33,15.18,14.93,20.42-9.22,20.43L11.2,158.61l0.03,55.58l193.15-0.09
	c27.02-0.01,40.28-18.29,40.76-41.39c0.49-23.06-13.1-46.83-40.81-71.3c-15.49-12.92-12.22-19.01,9.75-18.35l82.89-0.04l0.06,131.05
	l60.2-0.03l-0.06-131.06l84.05-0.04l-0.03-55.54L158.13,27.54z M1041.08,27.13l-16.54,55.45l-18.4-55.43l-69.05,0.03l60.95,186.55
	l59.63-0.03l20.4-62.34l20.43,62.32l59.63-0.03l60.78-186.61l-69.05,0.03l-18.35,55.45l-16.59-55.43L1041.08,27.13L1041.08,27.13z"
	/>
</svg>
